<svg width="88" height="88" viewBox="0 0 88 88" fill="none" xmlns="http://www.w3.org/2000/svg">
<g filter="url(#filter0_d_4_28)">
<rect x="4" width="80" height="80" rx="20" fill="#FFEC44"/>
</g>
<path d="M53.15 25.25C54.0167 25.25 54.7333 25.5333 55.3 26.1C55.8667 26.6667 56.15 27.4 56.15 28.3V58.95C56.15 59.8167 55.8667 60.5333 55.3 61.1C54.7333 61.7 54.0167 62 53.15 62C52.2833 62 51.5667 61.7 51 61.1C50.4333 60.5333 50.15 59.8167 50.15 58.95V46.5L51.25 46.95C51.25 47.3833 51.0167 47.9167 50.55 48.55C50.0833 49.15 49.45 49.75 48.65 50.35C47.85 50.95 46.9 51.4667 45.8 51.9C44.7333 52.3 43.5667 52.5 42.3 52.5C40 52.5 37.9167 51.9167 36.05 50.75C34.1833 49.55 32.7 47.9167 31.6 45.85C30.5333 43.75 30 41.35 30 38.65C30 35.9167 30.5333 33.5167 31.6 31.45C32.7 29.35 34.1667 27.7167 36 26.55C37.8333 25.35 39.8667 24.75 42.1 24.75C43.5333 24.75 44.85 24.9667 46.05 25.4C47.25 25.8333 48.2833 26.3833 49.15 27.05C50.05 27.7167 50.7333 28.4 51.2 29.1C51.7 29.7667 51.95 30.3333 51.95 30.8L50.15 31.45V28.3C50.15 27.4333 50.4333 26.7167 51 26.15C51.5667 25.55 52.2833 25.25 53.15 25.25ZM43.05 47C44.5167 47 45.8 46.6333 46.9 45.9C48 45.1667 48.85 44.1667 49.45 42.9C50.0833 41.6333 50.4 40.2167 50.4 38.65C50.4 37.05 50.0833 35.6167 49.45 34.35C48.85 33.0833 48 32.0833 46.9 31.35C45.8 30.6167 44.5167 30.25 43.05 30.25C41.6167 30.25 40.35 30.6167 39.25 31.35C38.15 32.0833 37.2833 33.0833 36.65 34.35C36.05 35.6167 35.75 37.05 35.75 38.65C35.75 40.2167 36.05 41.6333 36.65 42.9C37.2833 44.1667 38.15 45.1667 39.25 45.9C40.35 46.6333 41.6167 47 43.05 47Z" fill="black"/>
<defs>
<filter id="filter0_d_4_28" x="0" y="0" width="88" height="88" filterUnits="userSpaceOnUse" color-interpolation-filters="sRGB">
<feFlood flood-opacity="0" result="BackgroundImageFix"/>
<feColorMatrix in="SourceAlpha" type="matrix" values="0 0 0 0 0 0 0 0 0 0 0 0 0 0 0 0 0 0 127 0" result="hardAlpha"/>
<feOffset dy="4"/>
<feGaussianBlur stdDeviation="2"/>
<feComposite in2="hardAlpha" operator="out"/>
<feColorMatrix type="matrix" values="0 0 0 0 1 0 0 0 0 0.9 0 0 0 0 0 0 0 0 1 0"/>
<feBlend mode="normal" in2="BackgroundImageFix" result="effect1_dropShadow_4_28"/>
<feBlend mode="normal" in="SourceGraphic" in2="effect1_dropShadow_4_28" result="shape"/>
</filter>
</defs>
</svg>
